# xmcd
#
# Track frame offsets: 
#        213
#        17633
#        33755
#        45880
#        61112
#        79438
#        95434
#        109304
#        126499
#        142136
#        154541
#        164692
#        180577
#        196363
#        211664
#        226352
#        236395
#        252209
#        264839
#        274766
#        290177
#        303851
#        316295
#        327215
#
# Disc length: 4606 seconds
#
# Revision: 0
# Processed by: cddbd v1.5.2PL0 Copyright (c) Steve Scherf et al.
# Submitted via: ExactAudioCopy v0.95b4
#
DISCID=4b11fc18
DTITLE=VERN GOSDIN - 40 YEARS OF THE VOICE 2D
DYEAR=2008
DGENRE=COUNTRY
TTITLE0=CHISELED IN STONE
TTITLE1=I WONDER WHERE WE'D BE TONIGHT
TTITLE2=I CAN TELL BY THE WAY YOU DANCED
TTITLE3=IF YOU'RE GONNA DO ME WRONG
TTITLE4=I'LL FLY AWAY
TTITLE5=IF JESUS COMES TOMORROW
TTITLE6=THE NUMBER
TTITLE7=SLOW HEALING HEART
TTITLE8=WHO I CAME HERE TO FORGET
TTITLE9=STONE COLD HEART
TTITLE10=I'VE GOT A HEART FULL OF YOU
TTITLE11=PRAYING
TTITLE12=DEAD FROM THE HEART ON DOWN
TTITLE13=RAINBOWS AND ROSES
TTITLE14=WHAT A PRICE I'VE PAID
TTITLE15=CHIP OFF THE CHIP OFF THE OLD BLOCK
TTITLE16=DIM LIGHTS THICK SMOKE
TTITLE17=WE MUST HAVE BEEN OUT OF OUR MINDS
TTITLE18=BACK IN THE SWING OF THINGS
TTITLE19=FOR A MINUTE THERE
TTITLE20=I KNOW WHAT IT'S LIKE
TTITLE21=TOE TO TOE WITH THE DEVIL
TTITLE22=RIGHT IN THE WRONG DIRECTION
TTITLE23=A BETTER TIME TO SAY GOODBYE
EXTD=
EXTT0=
EXTT1=
EXTT2=
EXTT3=
EXTT4=
EXTT5=
EXTT6=
EXTT7=
EXTT8=
EXTT9=
EXTT10=
EXTT11=
EXTT12=
EXTT13=
EXTT14=
EXTT15=
EXTT16=
EXTT17=
EXTT18=
EXTT19=
EXTT20=
EXTT21=
EXTT22=
EXTT23=
PLAYORDER=
